<svg width="21" height="29" viewBox="0 0 21 29" fill="none" xmlns="http://www.w3.org/2000/svg">
<path fill-rule="evenodd" clip-rule="evenodd" d="M1.78105 27.303C1.65426 27.303 1.69815 27.1762 1.69815 27.0396V13.6832C1.69815 13.1224 1.64451 13.1272 1.83469 13.1321C2.79047 13.1467 3.76087 13.1321 4.71665 13.1321C8.56413 13.1321 12.4116 13.1321 16.2591 13.1321C17.2198 13.1321 18.1804 13.137 19.1411 13.1321C19.3069 13.1321 19.2581 13.1858 19.2581 13.3564C19.2581 13.4783 19.2581 13.6003 19.2581 13.7173V27.0543C19.2581 27.1859 19.302 27.2981 19.1752 27.2981H1.77617L1.78105 27.303ZM9.62231 24.2503V24.2698C9.62231 24.5185 9.60768 24.4356 9.68571 24.6161L9.91977 24.8989L10.1197 25.0208C10.3391 25.1183 10.6171 25.1232 10.8268 25.0257C10.856 25.011 10.9828 24.9672 10.9828 24.9672L11.0852 24.855C11.1779 24.7477 11.1633 24.7819 11.2364 24.6648L11.3339 24.46C11.3583 24.3625 11.3534 24.0699 11.3096 23.987C11.29 23.9529 11.3096 24.0016 11.29 23.948C11.2754 23.8992 11.2852 23.909 11.2657 23.8651L11.2364 23.8212C11.2023 23.7627 11.056 23.5676 10.9926 23.5237L10.7634 23.4311C10.6366 23.3775 10.6951 23.3921 10.4806 23.3921C10.2367 23.3921 10.266 23.3921 10.0466 23.4994C9.90514 23.5676 9.71496 23.7919 9.68083 23.8797L9.66132 23.9382C9.61256 24.0406 9.62231 23.9187 9.62231 24.2503ZM11.7289 17.7988L11.724 18.1109C11.7143 18.228 11.6021 18.4718 11.5241 18.5693C11.4217 18.701 11.3291 18.8131 11.1828 18.9009L10.9487 19.0326C10.6269 19.1252 10.6512 19.0862 10.344 19.135L10.2562 19.1545C10.2514 19.1545 10.2465 19.1594 10.2416 19.1594C10.0124 19.2325 9.8515 19.369 9.72959 19.569C9.65157 19.6958 9.62719 19.8518 9.62719 20.0079V21.3294C9.62719 22.251 10.8463 22.5046 11.2169 21.7634C11.4071 21.383 11.2998 21.1294 11.3291 20.6954C11.3437 20.6857 11.5241 20.6272 11.5436 20.6223C11.9922 20.4906 12.5043 20.0615 12.7871 19.7104L13.0407 19.3495C13.3479 18.8424 13.4649 18.3304 13.4649 17.7257C13.4649 17.5306 13.3918 17.2332 13.3576 17.0527C13.3089 16.7748 13.0602 16.3067 12.8993 16.0775C12.8602 16.0238 12.7969 15.9507 12.753 15.897C12.6554 15.7849 12.5482 15.6825 12.436 15.5801L11.8898 15.1851C11.8606 15.1705 11.8021 15.1363 11.7874 15.1266C11.6363 15.0632 11.4802 14.9949 11.3096 14.9608C10.8853 14.8681 10.5196 14.7901 10.0319 14.873L9.64182 14.9559C9.53454 14.9754 9.45652 15.0095 9.35899 15.0534C9.2322 15.1119 9.09566 15.1558 8.97375 15.229L8.64215 15.4582C8.62753 15.4679 8.61777 15.4777 8.60314 15.4874L8.56413 15.5167C8.42759 15.6191 8.31544 15.7556 8.1984 15.8775C8.19353 15.8824 8.19353 15.8824 8.18865 15.8873L7.98384 16.1555C7.88631 16.3164 7.77415 16.4871 7.71076 16.6626C7.62786 16.9016 7.54009 17.1698 7.50595 17.4136C7.42305 17.9841 7.53521 18.4035 8.00335 18.6083C8.51537 18.8326 9.15905 18.4767 9.17856 17.8622C9.18344 17.7208 9.19319 17.6916 9.21269 17.5843C9.38825 16.5944 10.5976 16.1896 11.3339 16.8723C11.3924 16.926 11.4412 16.9796 11.4802 17.0332C11.5192 17.0918 11.5339 17.1649 11.5778 17.2234C11.646 17.3112 11.6509 17.3746 11.6948 17.4721C11.7338 17.555 11.7192 17.6818 11.7192 17.7842L11.7289 17.7988ZM7.35966 8.21182C7.35966 7.72906 7.38404 7.90461 7.4133 7.67054C7.43281 7.48524 7.37917 7.57301 7.45719 7.41209L7.53033 7.19265C7.55959 7.10975 7.55959 7.1195 7.58885 7.05611L7.92532 6.43681C7.98384 6.36854 8.0326 6.28564 8.10087 6.21249C8.45198 5.83213 8.73481 5.59319 9.20782 5.37863L9.49065 5.26647C9.70034 5.19332 9.7491 5.19332 9.95879 5.15431C10.0271 5.13968 10.0466 5.12018 10.11 5.11042C10.2075 5.0958 10.383 5.10555 10.4903 5.10555C10.9243 5.10555 11.095 5.13481 11.5241 5.28598C11.5729 5.30548 11.5826 5.31523 11.6363 5.33474C11.8557 5.40789 12.119 5.55905 12.3141 5.69072C12.4994 5.8175 12.7773 6.08571 12.9285 6.27101C13.0309 6.40267 13.3333 6.87081 13.3771 7.01222C13.4064 7.10488 13.421 7.16827 13.4552 7.24629C13.5234 7.40721 13.4698 7.32919 13.5283 7.48036L13.6161 7.98263C13.6356 8.90915 13.6161 10.021 13.6161 10.9719C13.6161 11.3766 13.6649 11.4546 13.5186 11.4546H7.46694C7.34015 11.4546 7.36941 11.4351 7.36941 11.1377V8.22157L7.35966 8.21182ZM3.96568 8.23133C3.96568 7.97775 3.96568 7.6998 4.00957 7.46085C4.01932 7.39258 4.01932 7.33407 4.0242 7.25604C4.03395 7.14389 4.07784 7.04636 4.08759 6.92933C4.10222 6.80254 4.17049 6.56359 4.2095 6.43193C4.30215 6.11496 4.40456 5.83701 4.53622 5.54443L4.88732 4.86173C4.90683 4.82759 4.94584 4.77883 4.97022 4.74957L5.12627 4.50575C5.18966 4.42285 5.23355 4.33995 5.30182 4.26193L5.88211 3.60849C5.88211 3.60361 5.88698 3.60361 5.89186 3.59874C5.89674 3.59386 5.89674 3.59386 5.90161 3.58899C5.91624 3.57436 5.91624 3.57436 5.93087 3.55973L6.31123 3.21838C6.31611 3.21838 6.32098 3.2135 6.32098 3.20863L6.36487 3.17937C6.36487 3.17937 6.38925 3.15986 6.39413 3.15498L6.53067 3.04283C6.56481 3.01357 6.60382 2.98431 6.6477 2.95993C6.66233 2.95018 6.66721 2.95018 6.68184 2.94042C6.7111 2.92092 6.70134 2.93067 6.71597 2.92092L7.26701 2.56494C7.43768 2.46254 7.63762 2.38451 7.81804 2.29674C8.05211 2.18458 8.30081 2.0773 8.5495 1.99928L9.02252 1.87249C9.11029 1.85786 9.12004 1.83835 9.18831 1.82373C9.25171 1.81397 9.31022 1.81885 9.37362 1.80422C9.44676 1.78959 9.47114 1.77496 9.52966 1.76521C9.58818 1.75546 9.6662 1.76033 9.72959 1.75546C9.8515 1.75058 9.97341 1.7262 10.1002 1.71157C10.3294 1.68719 11.29 1.7262 11.4607 1.77009L11.9581 1.86761C12.28 1.88712 12.5969 2.06267 12.8895 2.16507C12.9431 2.18458 12.9285 2.18458 12.9675 2.19921C13.1772 2.27236 13.3918 2.37476 13.582 2.49179C13.8063 2.62833 13.9623 2.69173 14.211 2.87703C14.5377 3.12573 14.8059 3.32078 15.1034 3.61824C15.3814 3.8962 15.6008 4.16928 15.8446 4.51063C15.947 4.65692 16.0836 4.8471 16.1616 5.00314L16.6687 6.12472C16.737 6.36854 16.8492 6.68063 16.8882 6.93908L16.9662 7.45598C17.0198 7.67542 17.0101 7.96312 17.0101 8.22645V11.362C17.0101 11.4351 17.0003 11.4449 16.9272 11.4449H15.3862C15.2936 11.4449 15.3033 11.4205 15.3033 11.3278V8.2996C15.3033 7.91436 15.2594 7.84609 15.2497 7.53888C15.2399 7.23166 15.0302 6.58798 14.8986 6.26613L14.6987 5.87114C14.2451 5.06654 13.5625 4.39847 12.753 3.95959C12.4896 3.81818 12.1971 3.69627 11.8996 3.61337L11.568 3.52559C11.3388 3.47195 11.0901 3.4622 10.8755 3.42319C10.5196 3.35979 10.0904 3.41831 9.73447 3.4622C9.57355 3.4817 9.38825 3.5451 9.2322 3.57436C9.15418 3.58899 9.13955 3.60361 9.07616 3.61824C8.8811 3.67188 8.72505 3.74015 8.5495 3.8133L8.35445 3.90595C8.30081 3.94009 8.2813 3.94496 8.22766 3.97422C7.79854 4.19366 7.39379 4.50575 7.07195 4.83247C6.86227 5.04703 6.49654 5.48591 6.36 5.7346C6.23321 5.96867 6.03328 6.3149 5.96501 6.57335C5.88211 6.86593 5.8626 6.86593 5.78946 7.21216C5.74557 7.41209 5.6968 7.69492 5.69193 7.91924C5.66267 8.94816 5.68705 10.0941 5.68705 11.1425C5.68705 11.2986 5.73582 11.44 5.60415 11.44H4.06321C3.99006 11.44 3.98031 11.4303 3.98031 11.3571V8.22157L3.96568 8.23133ZM20.0725 29C20.1115 29 20.1651 29 20.1992 29C20.2139 29 20.2334 28.9999 20.248 28.9951C20.2529 28.9951 20.2578 28.9902 20.2626 28.9902L20.4431 28.9219C20.9258 28.6781 20.8771 28.3953 20.9161 28.2977C20.9405 28.2441 20.9307 28.2977 20.9502 28.2246C20.9795 28.0929 20.9551 13.7953 20.9551 12.347C20.9551 12.191 20.9161 12.0593 20.8527 11.9325L20.7795 11.8057C20.76 11.7814 20.7552 11.7716 20.7405 11.7521C20.6576 11.6448 20.5162 11.5375 20.3797 11.5083C20.2821 11.4839 20.3114 11.4936 20.2431 11.4693C20.0871 11.4156 18.7705 11.4936 18.7071 11.4303C18.6339 11.3474 18.7509 8.16306 18.6778 7.76807C18.6485 7.59739 18.6632 7.35357 18.6242 7.2024C18.59 7.08049 18.5998 6.92445 18.551 6.82204C18.5266 6.7684 18.5315 6.80254 18.5266 6.70989C18.5218 6.54409 18.4925 6.44656 18.4681 6.29052C18.4486 6.1686 18.395 6.05645 18.3657 5.93941L18.2974 5.70047C18.2536 5.53467 18.195 5.39326 18.1365 5.23721C18.0536 5.00314 17.961 4.81784 17.8537 4.59353C17.8293 4.53989 17.8196 4.53013 17.7952 4.49112L17.6391 4.19366C17.3417 3.61824 16.9125 3.06721 16.4688 2.60883L15.5667 1.78959C15.5618 1.78959 15.5618 1.78471 15.5569 1.77984C15.3326 1.57991 15.04 1.3751 14.7718 1.22393C14.7035 1.18492 14.645 1.15566 14.5767 1.11177C14.3866 0.98986 14.1866 0.906961 13.9867 0.794803C13.9331 0.765545 13.9526 0.770421 13.8794 0.741163L13.6697 0.643635C13.6258 0.619253 13.6112 0.624129 13.5625 0.604623C13.1089 0.433949 12.6359 0.248646 12.1532 0.1755C12.0508 0.16087 12.0118 0.136488 11.8996 0.121859C11.3339 0.0535894 11.1681 0.00482527 10.5049 0.00482527C10.3148 0.00482527 9.93928 -0.00980396 9.77836 0.0243309C9.55404 0.073095 9.22245 0.0682186 8.99813 0.131612L7.73514 0.477837C7.41818 0.599747 6.77449 0.848444 6.50141 1.02399L6.03328 1.31658C6.0284 1.31658 6.02352 1.32146 6.01865 1.32146L5.83822 1.43361C5.7602 1.48725 5.6968 1.53114 5.61878 1.57991C5.49687 1.65305 5.37496 1.77984 5.25793 1.87249L5.03361 2.06755C4.70202 2.38939 4.09734 2.9648 3.84865 3.35979C3.66822 3.64263 3.54631 3.77429 3.37563 4.10101L3.3415 4.15952C3.13669 4.53013 2.95139 4.91537 2.78559 5.32499C2.77096 5.364 2.75145 5.43227 2.7417 5.46153C2.70269 5.58344 2.62467 5.72973 2.60029 5.85652C2.57103 6.01744 2.50763 6.11984 2.493 6.27589C2.48325 6.36854 2.44912 6.46119 2.42961 6.57822C2.37597 6.87568 2.35159 6.91957 2.32721 7.2024C2.31745 7.29993 2.3077 7.42672 2.29795 7.51449C2.23455 8.03139 2.3077 11.2937 2.26869 11.4059C2.24918 11.4644 2.21505 11.4498 2.12727 11.4498H0.874037C0.401025 11.4498 0.00115967 11.7911 0.00115967 12.3373V28.1027C0.00115967 28.4879 0.171834 28.7805 0.508306 28.9366C0.635093 28.9951 0.698486 29.0097 0.86916 29.0097H20.0627L20.0725 29Z" fill="#2F0084"/>
</svg>
