<svg width="29" height="31" viewBox="0 0 29 31" fill="none" xmlns="http://www.w3.org/2000/svg">
<path fill-rule="evenodd" clip-rule="evenodd" d="M1.77345 11.2559C1.77345 10.6407 2.27975 10.4407 2.73621 10.215L4.03769 9.51275C4.92335 8.98256 5.58257 8.78278 5.88483 7.35256L6.33821 4.80043C6.604 3.8445 7.61244 4.18957 8.48145 4.31216C9.72517 4.48757 10.4833 4.79081 11.576 4.14507C12.0361 3.87314 12.1411 3.62054 12.5239 3.32502C12.8761 3.05309 13.1185 2.76916 13.4272 2.46037C14.3514 1.53616 14.6089 1.49097 15.5487 2.43093C15.8928 2.77501 17.05 3.91833 17.3923 4.12327C19.1316 5.16452 21.2634 3.78494 22.1832 4.22336C22.431 4.34149 22.5637 4.48211 22.6534 4.75533L23.1105 7.3038C23.4174 8.80686 24.3482 9.22952 25.5823 9.84117L26.8819 10.5453C27.6613 11.1133 26.8699 12.1594 26.4659 12.9649C26.3217 13.2524 26.199 13.564 26.0534 13.8489C25.4061 15.1158 25.8816 16.0457 26.4463 17.1688C26.8814 18.0344 27.6329 19.0284 26.9161 19.6029C26.7412 19.7431 26.4856 19.851 26.2693 19.9579C25.6278 20.2751 24.1673 21.0351 23.7687 21.4647C23.0877 22.1986 22.9908 23.4874 22.8207 24.524C22.6552 25.5321 22.6383 26.1656 21.4012 25.9857C19.8181 25.7556 18.6046 25.3334 17.4295 26.0278C16.9694 26.2998 16.8644 26.5524 16.4816 26.8479C16.1294 27.1198 15.887 27.4037 15.5783 27.7125C14.6256 28.6653 14.38 28.6653 13.4274 27.7125C13.0981 27.3833 11.9053 26.2183 11.5761 26.0279C10.4979 25.4043 9.67829 25.6921 8.48165 25.8608C8.16483 25.9055 7.89944 25.9429 7.60452 25.9857C7.24082 26.0385 7.07948 26.0841 6.78317 25.9296C6.53978 25.8028 6.43404 25.6744 6.34762 25.3633C6.01891 24.1809 6.09799 22.4337 5.26555 21.4951C4.87291 21.0525 4.57214 20.9711 4.07466 20.6823L2.12377 19.6276C1.34444 19.0596 2.13576 18.0135 2.53979 17.208C2.68398 16.9205 2.80667 16.6089 2.95225 16.324C3.34627 15.5529 3.36976 14.6664 2.97226 13.8878C2.76673 13.4853 1.77364 11.4624 1.77364 11.2559H1.77345ZM16.5653 19.8599C16.5653 17.7311 19.394 17.9261 19.394 19.6831C19.394 21.7447 16.5653 21.4712 16.5653 19.8599ZM14.7973 19.4474C14.7973 20.8012 15.1006 21.517 16.1437 22.3441C17.2602 23.2294 19.1 23.084 20.1763 22.0566C20.4282 21.8162 20.6528 21.5316 20.8092 21.2161C21.2567 20.3139 21.3196 19.1646 20.8489 18.2871C19.5278 15.8244 16.3025 16.06 15.1308 18.2487C14.9908 18.5103 14.7973 19.0753 14.7973 19.4474ZM9.6113 10.4898C9.6113 8.55812 12.44 8.47021 12.44 10.5487C12.44 12.2196 9.6113 12.3916 9.6113 10.4898ZM7.84335 10.1362C7.84335 10.8207 7.82155 11.2616 8.15641 11.8858C8.95704 13.3784 10.6716 14.0745 12.2816 13.3958C12.6387 13.2452 12.9372 13.0183 13.1974 12.7795L13.3742 12.6027C13.4469 12.5235 13.5035 12.4679 13.5693 12.3853C14.416 11.3221 14.43 9.6069 13.6276 8.59498C13.2382 8.10384 13.3526 8.2183 12.8615 7.82884C12.713 7.7111 12.5549 7.62112 12.3808 7.54343C9.95547 6.46056 7.84315 8.5154 7.84315 10.1363L7.84335 10.1362ZM7.90231 20.6849C7.90231 21.4379 8.15115 21.6867 8.90412 21.6867C9.33659 21.6867 10.2403 20.6158 10.5395 20.3166L19.7034 11.1527C20.5102 10.3459 21.103 10.0499 21.103 9.19325C21.103 8.62303 20.5441 8.48607 20.1012 8.48607C19.6687 8.48607 18.765 9.55705 18.4658 9.85623L9.30191 19.0201C8.99965 19.3224 7.90231 20.251 7.90231 20.6849ZM7.19513 2.3572C6.03942 2.3572 5.24434 3.00046 4.77728 3.94668C4.42369 4.66287 4.32171 6.68066 4.07386 7.25068C3.86694 7.72656 2.84472 8.15587 2.26379 8.44613C2.0096 8.57318 1.87859 8.6703 1.61578 8.79992C1.18003 9.01487 0.778081 9.31455 0.510609 9.69847C-0.410232 11.0202 0.086459 12.0176 0.653908 13.1415C0.775306 13.382 1.47872 14.8157 1.47872 14.9686C1.47872 15.5116 1.37645 15.5278 1.08589 16.108C0.677791 16.9229 0.0054939 18.1669 0.0054939 18.976C0.0054939 20.9175 1.82101 21.4216 2.89051 22.0431C4.32389 22.8761 3.9929 22.4432 4.39128 24.5498C4.58423 25.5702 4.64052 26.6326 5.63707 27.3113C6.82995 28.1236 7.9037 27.7295 9.43123 27.5179C10.7887 27.3298 10.6094 27.4217 11.8949 28.7147C12.551 29.3747 13.373 30.1731 14.3259 30.1731C15.2512 30.1731 15.7688 30.0109 16.4033 29.363C16.6618 29.0991 18.2255 27.6019 18.432 27.5018C18.932 27.2594 21.0865 27.8158 21.8103 27.8158C22.966 27.8158 23.7611 27.1725 24.2281 26.2263C24.5817 25.5101 24.6837 23.4924 24.9315 22.9223C25.1385 22.4464 26.1607 22.0171 26.7416 21.7269C26.9958 21.5998 27.1268 21.5027 27.3896 21.3731C28.295 20.9265 28.9999 20.072 28.9999 18.976C28.9999 18.165 28.618 17.5607 28.3316 16.9925C28.1693 16.6705 28.0616 16.392 27.8999 16.0687C27.4033 15.0764 27.3932 15.1172 27.8803 14.1436C28.2934 13.3179 28.9999 12.0146 28.9999 11.1971C28.9999 10.6086 28.7676 10.1 28.5185 9.73374C27.7276 8.5709 25.3294 8.06608 24.9501 7.29112C24.718 6.81692 24.5602 4.63988 24.2479 3.98592C23.7865 3.01989 22.9181 2.3573 21.8692 2.3573C21.4712 2.3573 20.0966 2.58285 19.5742 2.6552C18.4196 2.81515 18.4488 2.79731 17.7587 2.10678C16.913 1.26046 15.8099 0 14.6796 0C13.7543 0 13.2367 0.162227 12.6021 0.810146C12.3437 1.07405 10.78 2.57126 10.5735 2.67135C10.0735 2.91375 7.91896 2.3573 7.19523 2.3573L7.19513 2.3572Z" fill="#2F0084"/>
</svg>
