<svg width="29" height="29" viewBox="0 0 29 29" fill="none" xmlns="http://www.w3.org/2000/svg">
<path fill-rule="evenodd" clip-rule="evenodd" d="M16.502 17.6075H20.9322C20.991 18.314 21.8252 19.1226 22.6362 19.3115V24.3096C21.8252 24.4985 20.991 25.3071 20.9322 26.0136H16.502C16.8964 25.4247 17.0602 25.6606 17.8327 24.2772C18.8679 22.424 18.5031 20.0095 17.2332 18.4101C17.0059 18.1239 16.6731 17.8629 16.502 17.6075ZM14.9115 1.81764L14.9286 1.83467C14.9273 1.83345 14.9059 1.82332 14.9115 1.81764ZM19.6259 4.77126V5.45302C18.5408 5.45302 17.8084 6.25597 17.8084 7.04352C17.8084 7.66894 17.7841 7.93807 18.2279 8.49823C19.2481 9.78595 21.4434 8.39123 21.4434 9.713C21.4434 11.0948 17.8084 9.46818 17.8084 10.8491C17.8084 11.7113 18.6259 11.5309 19.6259 11.5309C19.6259 12.1056 19.5051 12.7238 20.3076 12.7238C20.9363 12.7238 20.8755 11.9176 20.8755 11.5309C21.3741 11.5309 21.8463 11.3169 22.1632 11.0011C23.0914 10.0754 22.7104 8.38353 21.4957 7.95753C20.4604 7.59476 19.0584 8.23112 19.0584 7.3848C19.0584 6.67548 19.182 6.70183 20.0807 6.70304C20.5727 6.70385 21.0656 6.70061 21.5577 6.70345C22.1085 6.70669 22.4457 6.68886 22.6196 6.28434C22.7773 5.91752 22.5284 5.45342 22.1251 5.45342H20.8755V4.99905C20.8755 3.95452 19.6259 4.0741 19.6259 4.77166V4.77126ZM18.3763 3.23791C18.3763 3.39761 18.6231 3.69836 18.9356 3.75835L20.5346 3.69228C20.8629 3.69228 21.3619 3.80253 21.5281 3.77132C22.1802 3.64931 22.3245 2.69477 21.4207 2.5221C20.4973 2.34578 19.925 2.36038 19.0325 2.53102C18.6109 2.61168 18.3763 2.76449 18.3763 3.23791ZM24.5105 10.8487C24.5105 11.2095 24.9057 11.6375 25.4306 11.3728C25.7629 11.205 25.9198 10.644 26.0373 10.2744C26.2732 9.53303 26.1991 9.47588 26.2882 8.81885C26.3202 8.58416 26.3405 8.34705 26.2055 8.13141C25.8874 7.62313 25.1768 7.86065 25.0901 8.30489C24.9778 8.88046 25.1148 9.19945 24.8019 10.0616C24.7468 10.2132 24.5101 10.7324 24.5101 10.8491L24.5105 10.8487ZM14.6845 6.07762C14.6845 6.53848 15.0424 6.80113 15.4267 6.70831C16.0063 6.56807 15.9658 5.7485 17.1684 4.75626C17.3143 4.63588 17.4416 4.45146 17.4505 4.25366C17.4671 3.89737 17.0893 3.52407 16.7059 3.60878C16.104 3.74213 14.6845 5.60826 14.6845 6.07803V6.07762ZM16.2179 12.723C16.2179 13.4906 18.1497 14.2717 18.8071 14.3982C19.6522 14.5603 20.0069 13.4615 19.1099 13.1822C18.4987 12.9917 18.1554 12.9017 17.6029 12.5308C17.2628 12.3026 17.2085 12.1551 16.7858 12.1551C16.4769 12.1551 16.2179 12.4173 16.2179 12.723ZM20.8183 13.8023C20.8183 14.1619 21.2148 14.4225 21.5496 14.4083C21.9914 14.3897 23.1384 13.8465 23.5454 13.5762C23.6848 13.4833 23.8141 13.3897 23.9442 13.2936C24.5741 12.8275 24.0812 11.9236 23.4364 12.1563C23.2576 12.2208 22.9629 12.5049 22.5608 12.7051C22.1985 12.8855 21.9784 13.0034 21.5633 13.1279C21.3088 13.2041 20.8183 13.2823 20.8183 13.8027V13.8023ZM22.9767 4.2034C22.9767 4.76801 23.8498 4.91231 24.4724 6.17247C24.9251 7.08932 25.7601 6.67872 25.7601 6.07762C25.7601 5.70878 25.1026 4.86367 24.9008 4.60832C24.5944 4.22082 24.4083 4.05667 24.0452 3.75997C23.4546 3.27763 22.9771 3.86495 22.9771 4.2034H22.9767ZM14.173 8.46338C14.173 9.16662 14.4219 11.4737 15.3092 11.4737C15.7141 11.4737 15.9338 11.2014 15.9338 10.792C15.9338 10.6367 15.6022 10.0433 15.4701 9.26795C15.3156 8.36204 15.586 7.89551 14.6274 7.89551C14.4543 7.89551 14.173 8.15654 14.173 8.46338ZM0.52974 14.7005H25.2397C25.5323 14.7005 25.7698 14.9381 25.7698 15.2307V28.4703C25.7698 28.7629 25.5323 29.0005 25.2397 29.0005H0.52974C0.237094 29.0005 -0.000427246 28.7629 -0.000427246 28.4703V15.2307C-0.000427246 14.9381 0.237094 14.7005 0.52974 14.7005ZM24.7095 15.7609H1.05991V27.9401H24.7095V15.7609ZM17.4671 0.000566512H20.5018C21.6432 0.0581229 22.7465 0.250248 23.8664 0.814462C24.904 1.33774 25.4346 1.69199 26.2282 2.48522C26.5934 2.85042 26.8743 3.15482 27.169 3.58933C28.0976 4.95933 28.6278 6.51173 28.7133 8.07305V8.96963C28.6347 10.3875 28.1807 11.7846 27.3165 13.0306C27.1706 13.2406 27.0381 13.3913 26.897 13.5766C26.4285 14.1939 25.6462 13.9126 25.6462 13.2912C25.6462 12.9341 27.4637 11.3967 27.4637 8.80425C27.4637 7.04716 27.2695 6.25191 26.4787 4.79071C26.3733 4.59616 26.2696 4.447 26.1415 4.27595C25.4253 3.31857 24.4509 2.37902 23.3257 1.92303C21.8304 1.31747 21.5183 1.24978 19.8525 1.24978C18.0394 1.24978 16.2621 2.2027 15.0388 3.42233C13.1078 5.34723 12.3134 8.75035 13.6044 11.3031C13.7827 11.6561 13.9529 12.0144 14.1722 12.3257C14.4438 12.712 15.1397 13.2734 14.6124 13.7873C14.0125 14.3726 13.4418 13.4205 13.1411 13.0156C13.0126 12.8425 12.8792 12.622 12.7714 12.4198L12.4488 11.7769C11.6677 10.1045 11.5076 8.0925 12.0333 6.26691C12.3657 5.11254 12.8999 3.99911 13.6781 3.08388L14.854 1.87398C14.6546 1.9206 14.1114 2.23635 13.9217 2.36159C13.6271 2.55574 13.3936 2.71666 13.1374 2.9404C12.7791 3.25372 12.4212 3.58608 12.1265 3.97439C12.0321 4.09882 11.9287 4.22934 11.8351 4.36431C11.6446 4.63912 11.4829 4.92366 11.3325 5.22482C10.8542 6.18341 10.5372 7.32887 10.5372 8.51931C10.5372 9.89093 11.1554 11.749 12.086 12.7639C12.5075 13.2239 12.5063 13.915 11.6734 13.915C11.3175 13.915 11.0354 13.4416 10.8538 13.2012C10.1562 12.2767 9.69295 11.2058 9.45178 10.0024C8.98485 7.67056 9.61675 5.62042 10.6678 3.87913C11.1939 3.00728 12.1229 2.09894 12.9226 1.53351C13.961 0.799465 15.7007 -0.000244141 17.4663 -0.000244141L17.4671 0.000566512ZM13.2643 17.6079C15.2009 17.6079 17.1834 19.5093 17.1834 21.8108C17.1834 23.0243 16.6508 24.0834 16.0339 24.6939C15.3262 25.3934 14.372 26.014 13.2647 26.014C13.3737 25.8653 13.3401 25.9508 13.4317 25.8405C13.6319 25.6002 13.6052 25.2897 13.6052 24.8783C14.2229 24.7344 14.6582 24.6947 15.1146 24.0024C15.8458 22.8926 15.0939 21.2915 13.717 21.1882C12.7746 21.1177 11.7873 21.4849 11.7873 20.562C11.7873 19.99 12.4119 19.9909 12.7519 19.9933C13.2821 19.9969 13.8127 19.9929 14.3433 19.9941C14.9411 19.9957 15.2763 20.0342 15.3922 19.5061C15.5957 18.5795 14.1382 18.7445 13.6048 18.7445C13.6048 18.483 13.6246 18.1442 13.5213 17.9192C13.4264 17.7125 13.3733 17.7575 13.2643 17.6083V17.6079ZM12.3555 18.7441C11.3686 18.8264 10.5381 19.5572 10.5381 20.5048C10.5381 21.3811 10.8903 21.9514 11.6908 22.3057C12.4569 22.6445 13.6635 22.1816 14.017 22.6494C14.2306 22.9323 14.1775 23.3498 13.8909 23.5172C13.5618 23.7089 11.8359 23.6291 11.3309 23.6266C10.1522 23.6201 10.3759 24.8787 11.2766 24.8787H12.3555C12.3555 25.9698 12.3288 25.5503 12.6397 26.0148C12.129 26.0148 11.4282 25.7797 11.0678 25.599C7.92857 24.0251 8.02787 19.4891 11.0338 18.0473C11.4318 17.8564 12.0852 17.6088 12.6397 17.6088C12.3284 18.0741 12.3555 17.6586 12.3555 18.7449V18.7441ZM9.45867 26.0144H5.02846C4.79985 25.5382 4.81647 25.3744 4.39047 24.9484C4.15376 24.7117 3.67386 24.3441 3.26772 24.3104V19.3123C3.78816 19.269 4.48532 18.6817 4.7427 18.2317C4.86471 18.0189 4.92348 17.8268 5.02805 17.6083H9.45827C6.83581 19.8875 6.83581 23.7353 9.45827 26.0144H9.45867ZM2.0181 18.9147V24.708C2.0181 26.0233 3.67426 24.9099 3.83963 26.5782C3.87409 26.9272 4.02082 27.2636 4.40385 27.2636H21.5001C22.2755 27.2636 21.858 26.3087 22.4494 25.7704C23.0241 25.2471 23.8859 25.7133 23.8859 24.7644V18.8576C23.8859 17.9087 23.0112 18.3631 22.4494 17.8515C22.2216 17.644 22.1154 17.4045 22.0716 17.0364C22.0274 16.6652 21.8945 16.3583 21.5001 16.3583H4.40385C3.62319 16.3583 4.11607 17.2598 3.45376 17.8507C3.15585 18.1162 2.99696 18.1053 2.53529 18.1819C2.19604 18.2378 2.0185 18.5151 2.0185 18.9147H2.0181Z" fill="#2F0084"/>
</svg>
